<svg width="2930" height="527" xmlns="http://www.w3.org/2000/svg" xmlns:xlink="http://www.w3.org/1999/xlink" xml:space="preserve" overflow="hidden"><defs><clipPath id="clip0"><rect x="735" y="974" width="2930" height="527"/></clipPath></defs><g clip-path="url(#clip0)" transform="translate(-735 -974)"><path d="M805.499 1095C808.54 1095 810.883 1095.75 812.53 1097.26 814.177 1098.76 815 1100.65 815 1102.91 815 1105.17 814.177 1107.05 812.53 1108.55 811.39 1109.81 808.793 1110.62 804.739 1111 798.405 1111.63 793.179 1114.26 789.062 1118.91 784.945 1123.55 782.886 1129.32 782.886 1136.23L782.886 1203.99C782.886 1211.9 781.619 1218.27 779.085 1223.1 776.552 1227.93 772.055 1232.73 765.594 1237.5 771.928 1242.27 776.235 1246.79 778.516 1251.05 781.429 1256.7 782.886 1263.41 782.886 1271.2L782.886 1338.77C782.886 1345.93 784.976 1351.79 789.157 1356.38 793.337 1360.96 798.531 1363.56 804.739 1364.19 808.666 1364.56 811.263 1365.32 812.53 1366.45 814.177 1367.95 815 1369.83 815 1372.09 815 1374.48 814.177 1376.39 812.53 1377.84 810.883 1379.28 808.476 1380 805.309 1380 795.301 1380 786.94 1376.86 780.226 1370.59 771.231 1361.93 766.734 1351.39 766.734 1338.96L766.734 1271.2C766.734 1264.29 764.643 1258.49 760.463 1253.78 756.283 1249.08 750.962 1246.47 744.501 1245.97 740.954 1245.59 738.484 1244.72 737.09 1243.34 735.697 1241.96 735 1240.01 735 1237.5 735 1235.12 735.697 1233.23 737.09 1231.85 738.484 1230.47 740.954 1229.59 744.501 1229.22 751.089 1228.72 756.441 1226.11 760.558 1221.41 764.676 1216.7 766.734 1210.9 766.734 1203.99L766.734 1136.23C766.734 1124.43 770.534 1114.61 778.135 1106.77 785.736 1098.92 794.858 1095 805.499 1095Z" fill="#909AB6" fill-rule="evenodd"/><path d="M3594.5 1095C3604.64 1095 3613 1098.2 3619.58 1104.59 3628.58 1113.12 3633.08 1123.66 3633.08 1136.2L3633.08 1203.92C3633.08 1210.82 3635.2 1216.62 3639.44 1221.32 3643.69 1226.02 3649.04 1228.63 3655.5 1229.13 3658.92 1229.5 3661.36 1230.38 3662.81 1231.76 3664.27 1233.14 3665 1235.02 3665 1237.41 3665 1239.91 3664.27 1241.86 3662.81 1243.24 3661.36 1244.62 3658.92 1245.49 3655.5 1245.87 3648.91 1246.37 3643.53 1248.98 3639.35 1253.68 3635.17 1258.38 3633.08 1264.18 3633.08 1271.08L3633.08 1338.8C3633.08 1350.59 3629.28 1360.4 3621.67 1368.24 3614.07 1376.08 3605.02 1380 3594.5 1380 3591.33 1380 3588.96 1379.25 3587.38 1377.74 3585.79 1376.24 3585 1374.29 3585 1371.91 3585 1369.65 3585.76 1367.77 3587.28 1366.27 3588.55 1365.14 3591.21 1364.39 3595.26 1364.01 3601.6 1363.38 3606.82 1360.72 3610.94 1356.01 3615.06 1351.31 3617.11 1345.51 3617.11 1338.61L3617.11 1271.08C3617.11 1263.18 3618.38 1256.78 3620.91 1251.89 3623.45 1247 3627.95 1242.17 3634.41 1237.41 3627.95 1232.64 3623.64 1228.13 3621.48 1223.86 3618.57 1218.34 3617.11 1211.7 3617.11 1203.92L3617.11 1136.2C3617.11 1129.17 3615.02 1123.34 3610.84 1118.7 3606.66 1114.06 3601.47 1111.49 3595.26 1110.99 3591.21 1110.61 3588.61 1109.86 3587.47 1108.73 3585.82 1107.1 3585 1105.16 3585 1102.9 3585 1100.64 3585.79 1098.76 3587.38 1097.26 3588.96 1095.75 3591.33 1095 3594.5 1095Z" fill="#909AB6" fill-rule="evenodd"/><path d="M1434.57 1354.95C1430.53 1356.83 1424.9 1360.24 1417.66 1365.18 1410.43 1370.13 1403.09 1375.45 1395.66 1381.14 1388.22 1386.83 1382.18 1391.73 1377.54 1395.84 1372.9 1399.95 1371.16 1402.1 1372.31 1402.29 1378.53 1402.62 1387.41 1399.16 1398.95 1391.93 1410.45 1384.88 1420.55 1376.29 1429.24 1366.16 1431.35 1363.62 1433.29 1360.99 1435.06 1358.24 1436.82 1355.5 1436.66 1354.4 1434.57 1354.95ZM1495.14 1259.99C1497.94 1260.59 1499.92 1261.84 1501.1 1263.74 1502.28 1265.63 1501.88 1267.93 1499.91 1270.64 1496.74 1274.87 1493.96 1278.3 1491.57 1280.93 1489.17 1283.56 1486.81 1286.01 1484.49 1288.28 1483.24 1289.54 1481.88 1290.94 1480.42 1292.49 1478.96 1294.03 1477.32 1295.71 1475.51 1297.53 1473.03 1303.69 1470.7 1309.85 1468.5 1316.01 1467.61 1319.05 1466.58 1321.94 1465.42 1324.7 1464.56 1327.67 1464.31 1329.43 1464.68 1329.95 1465.05 1330.48 1466.13 1330.41 1467.94 1329.74 1468.07 1329.61 1468.16 1329.52 1468.22 1329.5 1468.28 1329.47 1468.37 1329.45 1468.5 1329.46 1474.14 1328.16 1477.23 1328.87 1477.76 1331.6 1478.28 1334.32 1476.88 1336.78 1473.55 1338.98 1472.56 1339.54 1471.53 1339.97 1470.46 1340.28 1469.4 1340.59 1468.37 1340.81 1467.38 1340.95 1466.12 1341.1 1464.92 1341.42 1463.77 1341.93 1462.62 1342.43 1461.48 1343.03 1460.37 1343.75 1459.08 1344.79 1457.8 1346.2 1456.51 1347.98 1455.23 1349.76 1454.08 1351.53 1453.08 1353.27 1449.57 1360.12 1445.29 1366.73 1440.25 1373.09 1435.2 1379.45 1429.38 1385.64 1422.79 1391.65 1416.2 1397.66 1409.04 1402.44 1401.3 1406 1393.56 1409.56 1385.2 1411.97 1376.24 1413.22 1362.29 1414.59 1355.48 1412.82 1355.8 1407.93 1356.11 1403.03 1361 1396.44 1370.45 1388.15 1379.91 1379.85 1391.36 1371.3 1404.83 1362.48 1418.29 1353.66 1431.2 1346.02 1443.54 1339.54 1445.07 1338.48 1446.85 1335.85 1448.87 1331.67 1450.89 1327.48 1453.23 1322.27 1455.88 1316.01 1458.28 1309.85 1460.92 1303.76 1463.8 1297.74 1466.69 1291.71 1469.75 1285.76 1472.99 1279.88 1476.22 1273.99 1479.71 1269.38 1483.43 1266.05 1487.16 1262.72 1491.06 1260.7 1495.14 1259.99ZM2837.93 1232.24C2825.03 1230.8 2809.89 1236.21 2792.5 1248.49 2775.16 1260.53 2758.8 1274.82 2743.42 1291.35 2728.28 1307.55 2717.62 1321.09 2711.45 1331.96 2708.49 1337.15 2706.85 1340.92 2706.55 1343.27 2706.24 1345.63 2708.25 1345.68 2712.58 1343.45 2719.3 1339.68 2727.23 1334.47 2736.38 1327.83 2745.52 1321.19 2755.91 1313.04 2767.54 1303.39 2779.17 1293.73 2790.97 1283.5 2802.95 1272.72 2814.92 1261.93 2827.15 1250.59 2839.61 1238.69 2841.47 1237.02 2842.31 1235.66 2842.14 1234.62 2841.96 1233.58 2840.56 1232.79 2837.93 1232.24ZM2482.81 1208.52C2481.73 1208.63 2480.26 1208.87 2478.4 1209.26 2441.53 1216.13 2405.48 1225.42 2370.26 1237.13 2335.03 1248.83 2300.6 1262.89 2266.95 1279.28 2257.13 1284.05 2241.71 1292.73 2220.68 1305.34 2199.69 1317.99 2178 1332.74 2155.62 1349.59 2133.23 1366.45 2115.19 1383.44 2101.49 1400.58 2087.75 1417.71 2083.54 1433.02 2088.87 1446.51 2092.78 1453.98 2099.83 1458.91 2110.03 1461.29 2120.23 1463.67 2130.9 1464.65 2142.03 1464.23 2153.16 1463.82 2162.09 1463.14 2168.8 1462.2 2212.26 1456.09 2253.77 1440.31 2293.31 1414.86 2313.08 1402.13 2331.94 1388.17 2349.89 1372.98 2367.84 1357.8 2384.87 1341.32 2401 1323.54 2417.11 1305.76 2431.86 1287.83 2445.24 1269.76 2458.62 1251.69 2470.7 1233.49 2481.48 1215.14 2482.05 1214.06 2482.61 1213.13 2483.17 1212.34 2484.91 1210.16 2485.49 1208.91 2484.89 1208.59 2484.58 1208.43 2483.89 1208.4 2482.81 1208.52ZM2585.03 1207.01C2590.08 1207.47 2592.42 1209.01 2592.06 1211.65 2591.7 1214.29 2589.88 1217 2586.6 1219.76 2583.33 1222.52 2579.84 1224.31 2576.15 1225.13 2572.46 1225.95 2569.81 1224.77 2568.2 1221.58 2567.8 1220.06 2568.39 1218.76 2569.95 1217.69 2571.52 1216.63 2573.08 1215.68 2574.65 1214.86 2575.36 1214.71 2575.91 1214.52 2576.3 1214.3 2576.69 1214.08 2576.89 1213.89 2576.89 1213.74 2577.07 1211.6 2577.9 1209.92 2579.38 1208.7 2580.86 1207.47 2582.74 1206.91 2585.03 1207.01ZM1669.68 1107.25C1668.89 1107.64 1667.52 1109.05 1665.56 1111.48 1661.64 1116.34 1656.44 1123.52 1649.97 1133.01 1643.5 1142.5 1636.84 1152.53 1630 1163.09 1623.15 1173.66 1617.19 1182.98 1612.13 1191.07 1609.74 1194.84 1607.73 1197.93 1606.1 1200.34 1604.48 1202.75 1603.31 1204.52 1602.6 1205.63 1590.4 1223.99 1584.79 1233.35 1585.77 1233.71 1586.75 1234.07 1594.33 1225.37 1608.49 1207.59 1618.3 1196.24 1627.28 1184.63 1635.44 1172.79 1643.61 1160.94 1650.98 1148.92 1657.56 1136.72 1665.24 1121.67 1669.47 1112.48 1670.26 1109.16 1670.65 1107.5 1670.46 1106.87 1669.68 1107.25ZM1685.68 1064.24C1686.92 1064.43 1687.94 1064.91 1688.74 1065.7 1691.96 1068.83 1693.03 1074.43 1691.95 1082.52 1690.88 1090.61 1688.95 1098.87 1686.17 1107.33 1683.39 1115.78 1681.06 1122.12 1679.16 1126.36 1667.43 1151.52 1651.91 1176.55 1632.6 1201.43 1613.3 1226.03 1594.7 1247.7 1576.8 1266.42 1567.82 1275.79 1560.12 1283.66 1553.7 1290.02 1547.28 1296.38 1542.17 1301.3 1538.38 1304.79L1521.83 1329.72C1517.1 1336.64 1515.7 1339.68 1517.62 1338.83 1519.55 1337.97 1523.76 1334.57 1530.24 1328.6 1545.15 1314.6 1561.33 1300.03 1578.76 1284.9 1596.38 1269.73 1612.74 1257.22 1627.84 1247.37 1643.26 1237.33 1655.04 1233.04 1663.17 1234.48 1674.06 1237.33 1676.4 1249.84 1670.18 1272.02 1665.78 1289.48 1663.86 1302.74 1664.4 1311.8 1664.94 1320.85 1667.43 1325.99 1671.87 1327.2 1681.93 1329.86 1699.29 1324.47 1723.95 1311.04L1727.24 1309.17 1730.08 1305.35C1740.46 1292.75 1753.92 1280.7 1770.47 1269.22 1787.06 1257.78 1802.95 1250.96 1818.14 1248.77 1825.71 1247.52 1832.16 1248.41 1837.49 1251.43 1842.82 1254.45 1847.03 1259.54 1850.11 1266.7 1850.61 1268.56 1850.32 1270.23 1849.23 1271.7 1848.15 1273.18 1846.67 1274.22 1844.78 1274.82 1842.84 1275.29 1840.76 1274.91 1838.54 1273.66 1836.32 1272.42 1834.66 1270.85 1833.56 1268.94 1833.58 1268.53 1833.69 1268.16 1833.88 1267.82 1834.07 1267.48 1834.25 1267.11 1834.41 1266.7 1834.57 1266.29 1834.73 1265.91 1834.9 1265.58 1835.06 1265.24 1835.08 1264.86 1834.97 1264.46 1832.6 1261.24 1829.42 1259.41 1825.43 1258.96 1821.45 1258.51 1816.59 1259.41 1810.85 1261.65 1799.35 1266.14 1787.29 1273.14 1774.67 1282.66 1768.35 1287.42 1762.49 1292.05 1757.08 1296.56 1751.67 1301.08 1746.78 1305.5 1742.42 1309.83 1733.68 1318.19 1729.57 1323.33 1730.08 1325.24 1730.88 1327.2 1738.26 1324.12 1752.24 1316 1759.25 1311.95 1768.5 1306.18 1780 1298.7 1791.5 1291.22 1805.24 1281.95 1821.23 1270.9 1822.96 1269.91 1824.68 1269.57 1826.41 1269.88 1828.14 1270.19 1829.59 1271.18 1830.76 1272.86 1832.12 1275.1 1832.21 1277.34 1831.04 1279.58 1827.54 1287.27 1825.57 1293.46 1825.15 1298.14 1824.73 1302.82 1825.85 1306.06 1828.52 1307.87 1834.08 1311.52 1842.03 1311.8 1852.35 1308.71 1857.54 1307.17 1862.38 1305.49 1866.87 1303.67L1876.18 1299.26 1884.44 1285.04C1888.08 1278.82 1891.66 1272.71 1895.16 1266.7 1897.13 1263.49 1898.95 1260.52 1900.63 1257.8 1902.32 1255.08 1903.86 1252.54 1905.26 1250.17 1904.14 1248.59 1903.58 1246.98 1903.58 1245.34 1903.58 1243.69 1904.14 1242.22 1905.26 1240.93 1910.07 1235.65 1913.63 1232.76 1915.92 1232.24L1916.48 1231.96C1918.11 1231.4 1919.61 1231.4 1920.96 1231.96 1922.36 1232.39 1923.49 1233.07 1924.36 1233.99 1925.24 1234.92 1925.88 1236.01 1926.29 1237.28L1926.29 1238.12 1926.29 1238.69C1926.25 1240.37 1925.78 1242.05 1924.89 1243.73 1921.4 1249.34 1917.73 1255.35 1913.88 1261.76 1910.04 1268.17 1905.95 1274.95 1901.61 1282.1 1893.15 1296.39 1885.68 1309.27 1879.18 1320.76 1883.71 1316.56 1890.91 1310.4 1900.77 1302.27 1910.92 1294.15 1920.92 1286.59 1930.78 1279.58 1935.83 1276.07 1940.17 1273.36 1943.79 1271.46 1947.4 1269.56 1950.26 1268.53 1952.37 1268.38 1955.74 1268.51 1958.4 1269.23 1960.33 1270.55 1962.27 1271.87 1963.45 1273.85 1963.87 1276.5 1964.71 1281.5 1964.71 1287.19 1963.87 1293.59 1963.16 1298.52 1963.03 1302.7 1963.49 1306.13 1963.95 1309.57 1965.92 1311.26 1969.4 1311.2 1972.88 1311.15 1978.8 1308.36 1987.15 1302.83 1990.9 1300.83 1993 1300.98 1993.42 1303.29 1993.85 1305.59 1992.79 1307.78 1990.23 1309.83 1973.36 1320.43 1962.24 1322.49 1956.86 1316 1951.53 1309.23 1950.13 1297.84 1952.65 1281.82 1948.56 1282.48 1942.66 1285.79 1934.95 1291.77 1927.25 1297.74 1918.75 1304.98 1909.47 1313.48 1901.37 1320.75 1893.72 1327.28 1886.51 1333.08 1879.29 1338.89 1873.11 1343.18 1867.96 1345.97 1864.02 1347.58 1860.83 1347.58 1858.39 1345.97 1855.96 1344.36 1855.22 1341.56 1856.18 1337.57 1858.02 1332.96 1860.38 1327.89 1863.26 1322.37 1864.71 1319.61 1866.26 1316.72 1867.94 1313.7L1868.58 1312.55 1855.44 1317.96C1849.96 1319.91 1844.72 1321.19 1839.73 1321.77 1834.75 1322.36 1830.07 1322.31 1825.71 1321.6 1821.35 1320.77 1818.01 1318.58 1815.69 1315.05 1813.36 1311.52 1812.12 1306.61 1811.97 1300.31L1811.97 1298.91C1812.21 1296.3 1812.02 1294.94 1811.41 1294.81 1810.8 1294.69 1809.21 1295.5 1806.64 1297.23 1777.76 1316 1756.44 1327.76 1742.7 1332.52 1735.98 1334.89 1730.64 1336.11 1726.68 1336.17 1722.73 1336.22 1720.12 1335.2 1718.87 1333.08 1718.1 1331.61 1717.76 1329.93 1717.86 1328.04L1718.54 1325.32 1715.41 1327.08C1708.43 1330.8 1702.01 1333.81 1696.16 1336.1 1684.46 1340.67 1674.77 1341.81 1667.1 1339.53 1649.66 1334.77 1646.95 1310.4 1658.97 1266.42 1662.66 1251.62 1660.88 1245.08 1653.64 1246.81 1646.39 1248.44 1635.92 1254.98 1622.23 1266.42 1608.49 1277.62 1593.9 1290.51 1578.48 1305.07 1569.65 1313.32 1561.23 1320.91 1553.24 1327.83 1545.25 1334.75 1537.68 1341.08 1530.53 1346.81 1516.27 1358.25 1506.92 1362.54 1502.48 1359.7 1499.45 1357.35 1498.19 1354.17 1498.69 1350.17 1499.19 1346.17 1500.57 1342 1502.81 1337.66 1505.06 1333.32 1507.29 1329.46 1509.49 1326.08 1510.29 1324.91 1510.94 1323.89 1511.46 1323L1517.91 1312.64C1519.63 1309.23 1520.66 1306.24 1520.99 1303.67 1521.13 1302.42 1521.41 1301.35 1521.83 1300.45 1522.25 1299.55 1522.81 1298.76 1523.51 1298.07L1523.79 1297.79C1524.96 1296.95 1527.67 1294.43 1531.93 1290.23L1668.78 1070.62C1676.35 1065.81 1681.98 1063.68 1685.68 1064.24ZM3022.75 1034.88C3020.86 1034.6 3017.27 1036.63 3011.98 1040.98 3006.69 1045.34 3002.33 1049.24 2998.9 1052.69 2994 1057.88 2988.81 1063.67 2983.34 1070.05 2977.87 1076.44 2972.12 1083.35 2966.09 1090.78 2960.2 1098.19 2954.74 1105.29 2949.72 1112.07 2944.7 1118.85 2940.16 1125.39 2936.08 1131.68 2927.93 1144.77 2923.77 1152.36 2923.59 1154.46 2923.41 1156.56 2925.67 1155.32 2930.35 1150.73 2935.04 1146.14 2940.59 1140.35 2947.02 1133.36 2948.55 1131.69 2950.05 1130.06 2951.51 1128.49 2952.97 1126.92 2954.47 1125.37 2956 1123.84 2966.66 1112.78 2976.95 1101.21 2986.88 1089.1 2996.81 1077 3006.33 1064.3 3015.45 1051.01 3022.21 1040.54 3024.64 1035.17 3022.75 1034.88ZM2482.33 1014.61C2494.25 1014.47 2504.33 1015.93 2512.58 1018.98 2520.82 1022.02 2527.19 1026.62 2531.68 1032.78 2540.86 1045.06 2544.87 1060.56 2543.71 1079.28 2543.28 1088.66 2542.18 1098.05 2540.42 1107.47 2538.66 1116.88 2536.3 1126.35 2533.35 1135.86 2527.47 1154.96 2521.31 1171.11 2514.86 1184.32 2512.95 1187.72 2513.68 1189.68 2517.03 1190.21 2520.38 1190.73 2525.17 1190.45 2531.4 1189.37 2532.1 1189.24 2532.8 1189.15 2533.5 1189.09 2534.19 1189.03 2534.89 1188.94 2535.59 1188.81 2539.92 1189.2 2542.67 1191 2543.82 1194.2 2544.97 1197.4 2542.88 1199.61 2537.55 1200.85 2535.74 1201 2533.97 1201.2 2532.24 1201.45 2530.5 1201.7 2528.72 1201.97 2526.92 1202.25 2522.15 1203.09 2517.38 1203.65 2512.61 1203.93 2508.84 1204.28 2506.22 1204.99 2504.73 1206.07 2503.24 1207.15 2501.94 1209.05 2500.83 1211.78 2500.32 1212.85 2499.67 1214.06 2498.87 1215.42 2477.23 1254.59 2449.84 1293.06 2416.7 1330.83 2383.57 1368.41 2346.36 1400.53 2305.09 1427.19 2263.82 1453.8 2220.16 1470.32 2174.12 1476.77 2164.53 1478.19 2153.06 1478.95 2139.71 1479.04 2126.37 1479.13 2113.76 1477.27 2101.88 1473.47 2089.99 1469.67 2081.45 1462.64 2076.25 1452.4 2072.76 1443.85 2071.82 1435.03 2073.45 1425.93 2075.07 1416.82 2079.18 1407.44 2085.79 1397.77 2099.2 1378.49 2117.52 1359.91 2140.75 1342.03 2164.08 1324.1 2187.26 1308.42 2210.3 1294.97 2233.34 1281.57 2250.92 1271.96 2263.02 1266.12 2333.18 1233.07 2406.28 1209.54 2482.33 1195.53 2483.17 1195.4 2483.94 1195.31 2484.64 1195.25 2485.34 1195.19 2485.97 1195.1 2486.53 1194.97 2489.71 1194.6 2491.98 1193.87 2493.33 1192.76 2494.69 1191.66 2496.25 1189.03 2498.03 1184.89 2507.33 1165 2515.09 1144.55 2521.31 1123.54 2525.23 1110.05 2527.76 1096.13 2528.88 1081.8 2529.95 1067.24 2527.24 1054.91 2520.75 1044.83 2517.51 1039.78 2512.69 1036 2506.3 1033.48 2499.91 1030.96 2492.01 1029.7 2482.61 1029.7 2471.16 1030.31 2455.08 1034.7 2434.37 1042.87 2413.57 1050.99 2391.51 1061.35 2368.19 1073.96 2350.85 1083.38 2334.4 1093.41 2318.85 1104.07 2303.3 1114.72 2290.04 1125.38 2279.08 1136.04 2268.12 1146.7 2260.86 1156.74 2257.29 1166.17 2253.73 1175.6 2255.26 1183.8 2261.9 1190.77 2263.81 1192.12 2265.25 1192.78 2266.21 1192.76 2267.18 1192.75 2267.98 1192.36 2268.63 1191.61 2269.43 1190.75 2270.57 1190.36 2272.07 1190.45 2273.56 1190.54 2275.69 1192.05 2278.45 1194.97 2280.97 1197.62 2282.73 1200.16 2283.74 1202.6 2284.75 1205.04 2285.04 1207.45 2284.62 1209.82 2283.78 1214.3 2279.85 1215.7 2272.84 1214.02 2265.83 1212.2 2259.59 1209.05 2254.12 1204.56 2248.65 1200.08 2244.79 1194.27 2242.55 1187.13 2240.73 1178.57 2241.63 1169.7 2245.25 1160.52 2248.87 1151.33 2255.17 1141.9 2264.15 1132.22 2282.37 1112.66 2305.65 1094.08 2333.97 1076.48 2362.35 1058.83 2390.3 1044.27 2417.83 1032.78 2431.57 1027.06 2443.83 1022.7 2454.6 1019.71 2465.37 1016.72 2474.61 1015.02 2482.33 1014.61ZM3032.94 1013.75C3035.01 1013.68 3036.97 1013.92 3038.82 1014.47 3042.51 1015.57 3044.72 1018.41 3045.46 1022.99 3045.03 1025.95 3043.28 1030.34 3040.2 1036.16 3037.11 1041.98 3032.7 1049.17 3026.95 1057.73 3008.76 1084.11 2989.32 1108.66 2968.62 1131.4 2958.37 1142.73 2948.36 1153.33 2938.57 1163.19 2928.79 1173.06 2919.26 1182.25 2910 1190.79 2902.43 1198.35 2896.54 1204.79 2892.34 1210.11 2888.18 1215.39 2883.32 1222.77 2877.75 1232.24 2858.68 1263.9 2839.61 1294.99 2820.54 1325.52 2801.71 1356.05 2785.82 1381.54 2772.87 1401.99 2766.56 1412.23 2761.72 1420.05 2758.36 1425.45 2754.99 1430.86 2753.1 1433.77 2752.68 1434.21 2750.35 1437.31 2748.06 1438.53 2745.81 1437.88 2743.55 1437.24 2743.51 1434.61 2745.67 1430.01 2756.28 1411.47 2769.55 1388.31 2785.49 1360.54 2809.05 1319.31 2828.4 1285.79 2843.54 1259.97 2847.39 1253.98 2848.87 1251.19 2847.99 1251.61 2847.11 1252.02 2844.32 1254.62 2839.61 1259.41 2839.19 1259.85 2838.77 1260.31 2838.35 1260.81 2837.93 1261.32 2837.51 1261.78 2837.09 1262.21 2828.16 1271.18 2816.57 1282.1 2802.32 1294.99 2795.17 1301.3 2787.94 1307.51 2780.62 1313.62 2773.3 1319.72 2765.85 1325.65 2758.29 1331.4 2743.19 1342.84 2729.92 1350.78 2718.46 1355.21 2712.71 1357.58 2707.95 1358.38 2704.2 1357.59 2700.44 1356.81 2697.72 1354.53 2696.03 1350.73 2694.07 1343.78 2697.71 1332.76 2706.97 1317.68L2707 1317.63 2705.67 1318.15C2697.82 1320.77 2692.22 1320.05 2688.86 1316 2683.53 1309.23 2682.13 1297.84 2684.65 1281.82 2680.56 1282.48 2674.66 1285.79 2666.95 1291.77 2659.24 1297.74 2650.75 1304.98 2641.47 1313.48 2633.37 1320.75 2625.72 1327.28 2618.5 1333.08 2611.29 1338.89 2605.11 1343.18 2599.96 1345.97 2596.02 1347.58 2592.83 1347.58 2590.39 1345.97 2587.95 1344.36 2587.22 1341.56 2588.18 1337.57 2590.02 1332.96 2592.38 1327.89 2595.26 1322.37L2596.35 1320.36 2590.95 1322.84C2583 1325.92 2574.11 1328.87 2564.27 1331.67 2544.88 1337.27 2530.95 1340.07 2522.49 1340.07 2513.69 1339.76 2509.21 1336.14 2509.05 1329.22 2508.9 1322.29 2511.2 1313.91 2515.97 1304.08 2520.73 1294.24 2526.09 1284.81 2532.03 1275.78 2537.98 1266.76 2542.65 1259.99 2546.04 1255.47 2546.84 1254.12 2547.49 1253.19 2548.01 1252.67 2546.79 1249.67 2547.79 1246.37 2551 1242.77 2554.21 1239.16 2557.95 1236.46 2562.22 1234.66 2566.49 1232.86 2569.6 1233.17 2571.56 1235.59 2572.73 1237.68 2572.99 1239.65 2572.34 1241.5 2571.68 1243.35 2570.68 1245.12 2569.32 1246.79 2569.17 1246.94 2568.98 1247.14 2568.76 1247.39 2568.54 1247.64 2568.35 1247.91 2568.2 1248.19 2561.14 1258.23 2553.38 1269.53 2544.92 1282.09 2536.79 1294.41 2530.62 1304.78 2526.41 1313.18 2523.33 1320.42 2525.29 1324.43 2532.3 1325.22 2539.55 1326.06 2548.9 1324.94 2560.35 1321.86 2571.89 1318.83 2582.46 1315.65 2592.04 1312.34L2603.09 1308.11 2605.29 1304.23C2609.07 1297.66 2612.79 1291.27 2616.44 1285.04 2620.08 1278.82 2623.66 1272.71 2627.16 1266.7 2629.13 1263.49 2630.95 1260.52 2632.63 1257.8 2634.31 1255.08 2635.86 1252.54 2637.26 1250.17 2636.14 1248.59 2635.58 1246.98 2635.58 1245.34 2635.58 1243.69 2636.14 1242.22 2637.26 1240.93 2642.07 1235.65 2645.63 1232.76 2647.92 1232.24L2648.48 1231.96C2650.11 1231.4 2651.61 1231.4 2652.96 1231.96 2654.36 1232.39 2655.49 1233.07 2656.36 1233.99 2657.23 1234.92 2657.88 1236.01 2658.29 1237.28L2658.29 1238.12 2658.29 1238.69C2658.24 1240.37 2657.78 1242.05 2656.89 1243.73 2653.4 1249.34 2649.73 1255.35 2645.88 1261.76 2642.04 1268.17 2637.95 1274.95 2633.61 1282.1 2625.15 1296.39 2617.67 1309.27 2611.18 1320.76 2615.71 1316.56 2622.91 1310.4 2632.77 1302.27 2642.91 1294.15 2652.92 1286.59 2662.78 1279.58 2667.83 1276.07 2672.17 1273.36 2675.78 1271.46 2679.4 1269.56 2682.26 1268.53 2684.37 1268.38 2687.74 1268.51 2690.4 1269.23 2692.33 1270.55 2694.26 1271.87 2695.44 1273.85 2695.87 1276.5 2696.71 1281.5 2696.71 1287.19 2695.87 1293.59 2695.16 1298.52 2695.03 1302.7 2695.49 1306.13 2695.94 1309.57 2697.91 1311.26 2701.4 1311.2 2704.01 1311.17 2707.99 1309.59 2713.34 1306.47L2716.01 1304.8 2723.16 1294.6C2729.33 1286.81 2736.27 1278.91 2743.98 1270.9 2751.71 1262.91 2759.68 1255.64 2767.89 1249.08 2776.11 1242.53 2784.5 1236.73 2793.06 1231.68 2810.21 1221.55 2825.83 1218 2839.89 1221.04 2843.54 1222.16 2846.06 1223.28 2847.47 1224.4 2848.87 1225.37 2850.2 1225.81 2851.46 1225.69 2852.72 1225.58 2854.76 1224.12 2857.56 1221.32 2864.81 1214.6 2870.79 1208.43 2875.51 1202.83 2877.88 1200.02 2880.29 1196.81 2882.73 1193.2 2885.17 1189.59 2887.72 1185.61 2890.37 1181.26 2906.36 1154.65 2918.98 1134.2 2928.23 1119.92 2940.9 1100.35 2955.39 1081.49 2971.7 1063.33 2988.01 1045.12 3002.22 1031.12 3014.33 1021.31 3017.77 1018.43 3021.79 1016.29 3026.39 1014.9 3028.68 1014.21 3030.87 1013.82 3032.94 1013.75ZM1465.26 996.594C1477.12 996.314 1487.89 997.924 1497.58 1001.43 1504.87 1004.64 1510.54 1008.72 1514.58 1013.68 1518.62 1018.64 1520.99 1024.55 1521.69 1031.4 1523.33 1044.89 1521.18 1059.64 1515.24 1075.66 1509.4 1091.62 1502.3 1106.75 1493.93 1121.04 1485.75 1135.28 1478.83 1146.29 1473.18 1154.09 1465.05 1166.37 1452.15 1184.67 1434.48 1208.99 1414.01 1237.84 1391.57 1269.78 1367.17 1304.79 1343.01 1339.57 1321.79 1371.69 1303.51 1401.15 1285.28 1430.85 1274.63 1452.13 1271.54 1465.02 1271.31 1467.59 1271.78 1470.02 1272.95 1472.3 1273.56 1473.57 1273.87 1474.82 1273.89 1476.05 1273.91 1477.28 1273.31 1478.46 1272.1 1479.59 1267.85 1481.71 1264.72 1480.75 1262.71 1476.71 1260.7 1472.68 1260.09 1467.94 1260.89 1462.5 1262.44 1455.49 1266.13 1446.12 1271.96 1434.38 1277.79 1422.65 1285.69 1408.58 1295.66 1392.19 1315.57 1359.42 1338.29 1324.12 1363.81 1286.31 1376.57 1267.41 1388.69 1249.67 1400.16 1233.08 1411.63 1216.5 1422.41 1201 1432.51 1186.58 1444.9 1168.89 1454.34 1155.26 1460.84 1145.69 1464.54 1140.26 1470.06 1131.48 1477.42 1119.35 1484.77 1107.21 1491.55 1094 1497.75 1079.72 1503.95 1065.44 1507.17 1052.37 1507.41 1040.51 1507.65 1028.65 1502.5 1020.29 1491.97 1015.43 1474.53 1008.99 1452.47 1010.11 1425.78 1018.79 1412.45 1023.12 1398.8 1028.4 1384.84 1034.62 1370.88 1040.84 1356.67 1048.08 1342.21 1056.33 1313.28 1072.86 1286.73 1089.66 1262.57 1106.75 1238.45 1123.79 1220.22 1137.61 1207.88 1148.21 1182.86 1170.04 1166.11 1189.03 1157.62 1205.17 1149.13 1221.31 1146.47 1234.98 1149.62 1246.19 1152.76 1257.39 1159.29 1266.5 1169.18 1273.52 1179.08 1280.55 1189.9 1285.85 1201.65 1289.45 1213.4 1293.04 1223.63 1295.3 1232.34 1296.22 1241.06 1297.14 1245.8 1297.11 1246.58 1296.11 1247.34 1294.01 1248.63 1292.61 1250.44 1291.91 1252.25 1291.21 1254.24 1291.21 1256.4 1291.91 1263.97 1295.04 1268.74 1298.02 1270.7 1300.87 1273.23 1305.08 1273.44 1308.7 1271.33 1311.73 1269.23 1314.75 1265.65 1316.27 1260.61 1316.28 1215.89 1311.22 1182.52 1300.8 1160.48 1285.01 1138.44 1269.22 1130.16 1248.73 1135.63 1223.55 1141.11 1198.36 1162.76 1169.14 1200.59 1135.88 1207.45 1129.99 1215.68 1123.35 1225.27 1115.96 1234.86 1108.56 1245.89 1100.45 1258.36 1091.62 1270.85 1082.8 1283.94 1074.12 1297.62 1065.57 1311.31 1057.03 1325.52 1048.63 1340.25 1040.36 1355.12 1032.09 1369.76 1024.83 1384.17 1018.58 1398.59 1012.34 1412.74 1007.18 1426.63 1003.11 1440.52 999.045 1453.4 996.874 1465.26 996.594ZM3250.27 993.395C3248.6 993.175 3243.56 998.466 3235.14 1009.27 3216.47 1035.24 3198.07 1062.78 3179.93 1091.9 3161.79 1121.02 3144.02 1150.53 3126.61 1180.42 3119.19 1192.89 3111.88 1205.14 3104.67 1217.19 3097.46 1229.23 3090.28 1241.07 3083.14 1252.69 3080.45 1256.82 3079.18 1259.13 3079.32 1259.62 3079.47 1260.11 3081.21 1258.36 3084.55 1254.37 3103.1 1230.84 3123.76 1202.55 3146.52 1169.5 3169.24 1136.49 3190.27 1104.46 3209.62 1073.42 3232.47 1035.24 3245.8 1010.68 3249.62 999.745 3251.05 995.644 3251.27 993.528 3250.27 993.395ZM3256.68 974.01C3263.1 973.799 3266.2 977.056 3265.99 983.779 3266.04 992.509 3262.86 1003.9 3256.46 1017.95 3250.24 1031.73 3243.6 1044.8 3236.54 1057.17 3229.58 1069.21 3225 1077.06 3222.8 1080.7 3222.67 1080.83 3222.59 1080.92 3222.56 1080.98 3222.53 1081.04 3222.52 1081.13 3222.52 1081.26 3197 1122.44 3168.68 1163.89 3137.55 1205.63 3122.12 1226.49 3108.46 1243.88 3096.57 1257.8 3084.68 1271.73 3074.6 1282.25 3066.32 1289.39 3063.19 1291.63 3061.04 1293.03 3059.87 1293.59 3058.59 1294.24 3057.43 1295.18 3056.36 1296.39 3055.3 1297.6 3053.57 1300.22 3051.17 1304.23L2939.84 1485.47C2940.42 1485.74 2939.94 1487.38 2938.4 1490.38 2936.85 1493.38 2934.67 1496.11 2931.84 1498.58 2929.02 1501.05 2925.98 1501.63 2922.73 1500.31 2919.65 1499.43 2919.02 1496.31 2920.84 1490.97 2922.66 1485.62 2928.04 1475.51 2936.96 1460.64 2945.89 1445.77 2959.47 1423.61 2977.7 1394.15 2989.44 1375.42 3003.63 1352.67 3020.26 1325.9L3030.13 1310 3026.94 1311.66C3022.36 1313.76 3017.25 1315.86 3011.62 1317.96 3006.14 1319.91 3000.91 1321.19 2995.92 1321.77 2990.93 1322.36 2986.25 1322.31 2981.9 1321.6 2977.54 1320.77 2974.19 1318.58 2971.87 1315.05 2969.54 1311.52 2968.31 1306.61 2968.15 1300.31L2968.15 1298.91C2968.39 1296.3 2968.2 1294.94 2967.59 1294.81 2966.99 1294.69 2965.4 1295.5 2962.83 1297.23 2933.94 1316 2912.63 1327.76 2898.89 1332.52 2892.16 1334.89 2886.82 1336.11 2882.87 1336.17 2878.91 1336.22 2876.3 1335.2 2875.05 1333.08 2873.52 1330.14 2873.7 1326.36 2875.61 1321.74 2877.51 1317.12 2881.07 1311.66 2886.27 1305.35 2896.64 1292.75 2910.1 1280.7 2926.65 1269.22 2943.24 1257.78 2959.13 1250.96 2974.32 1248.77 2981.9 1247.52 2988.35 1248.41 2993.67 1251.43 2999 1254.45 3003.21 1259.54 3006.29 1266.7 3006.79 1268.56 3006.5 1270.23 3005.42 1271.7 3004.34 1273.18 3002.85 1274.22 3000.97 1274.82 2999.02 1275.29 2996.95 1274.91 2994.73 1273.66 2992.5 1272.42 2990.85 1270.85 2989.75 1268.94 2989.77 1268.53 2989.87 1268.16 2990.06 1267.82 2990.26 1267.48 2990.43 1267.11 2990.59 1266.7 2990.75 1266.29 2990.92 1265.91 2991.08 1265.58 2991.24 1265.24 2991.27 1264.86 2991.15 1264.46 2988.78 1261.24 2985.6 1259.41 2981.62 1258.96 2977.63 1258.51 2972.77 1259.41 2967.03 1261.65 2955.53 1266.14 2943.48 1273.14 2930.86 1282.66 2924.53 1287.42 2918.67 1292.05 2913.26 1296.56 2907.85 1301.08 2902.96 1305.5 2898.61 1309.83 2889.86 1318.19 2885.75 1323.33 2886.27 1325.24 2887.06 1327.2 2894.45 1324.12 2908.42 1316 2915.43 1311.95 2924.69 1306.18 2936.18 1298.7 2947.68 1291.22 2961.42 1281.95 2977.41 1270.9 2979.14 1269.91 2980.87 1269.57 2982.6 1269.88 2984.33 1270.19 2985.77 1271.18 2986.94 1272.86 2988.3 1275.1 2988.39 1277.34 2987.22 1279.58 2983.72 1287.27 2981.76 1293.46 2981.33 1298.14 2980.91 1302.82 2982.04 1306.06 2984.7 1307.87 2990.26 1311.52 2998.21 1311.8 3008.54 1308.71 3018.91 1305.63 3027.89 1301.99 3035.46 1297.79L3038.35 1296.62 3040.42 1292.79C3047.47 1279.98 3059.56 1259.24 3076.69 1230.56 3096.32 1197.55 3118.2 1161.89 3142.32 1123.56 3154.37 1104.36 3165.88 1086.38 3176.85 1069.63 3187.81 1052.89 3198.27 1037.43 3208.22 1023.28 3228.18 994.703 3241.83 978.737 3249.16 975.375 3252.04 974.535 3254.54 974.08 3256.68 974.01Z" fill="#F2F2F2" fill-rule="evenodd"/></g></svg>