<svg xmlns="http://www.w3.org/2000/svg" xmlns:xlink="http://www.w3.org/1999/xlink" id="Layer_1" x="0" y="0" version="1.1" viewBox="0 0 711.2 669.7" style="enable-background:new 0 0 711.2 669.7" xml:space="preserve"><style type="text/css">.st0{fill:#dcdcdc}.st1{fill:#b4b4b4}.st2{fill:#4c4c4c}.st3{fill:#323232}.st4{fill:#f0f0f0}.st5{fill:#828282}.st6{fill:#b496ff}.st7{fill:#78dc50}.st8{fill:#50dcff}.st9{fill:#f4b39f}</style><g><g><polygon points="516.3 380 516.3 565 547.3 615.4 549.6 619.3 671.7 619.3 674.2 380" class="st0"/><polygon points="516.3 380 516.3 565 547.3 615.4 549.2 380" class="st1"/><polygon points="221.6 375.1 221.6 560.1 190.6 610.5 188.3 614.3 66.2 614.3 63.7 375.1" class="st0"/><polygon points="221.6 375.1 221.6 560.1 190.6 610.5 188.7 375.1" class="st1"/><polygon points="711.2 371.4 711.2 382.5 47.7 382.5 47.7 366.5 109.3 334.4 656.9 334.4" class="st0"/><polygon points="711.2 371.4 711.2 382.5 47.7 382.5 47.7 366.5" class="st1"/><path d="M141.4,426.9h-27c-0.9,0-1.7-0.3-2.5-0.8h0c-3.5-2.4-1.7-7.9,2.5-7.9h27c4.3,0,6,5.6,2.3,8l0,0 C143,426.6,142.2,426.9,141.4,426.9z" class="st2"/><path d="M141.4,462.6h-27c-0.9,0-1.7-0.3-2.5-0.8h0c-3.5-2.4-1.7-7.9,2.5-7.9h27c4.3,0,6,5.6,2.3,8l0,0 C143,462.4,142.2,462.6,141.4,462.6z" class="st2"/><path d="M141.4,513.2h-27c-0.9,0-1.7-0.3-2.5-0.8l0,0c-3.5-2.4-1.7-7.9,2.5-7.9h27c4.3,0,6,5.6,2.3,8l0,0 C143,513,142.2,513.2,141.4,513.2z" class="st2"/><path d="M141.4,563.8h-27c-0.9,0-1.7-0.3-2.5-0.8l0,0c-3.5-2.4-1.7-7.9,2.5-7.9h27c4.3,0,6,5.6,2.3,8l0,0 C143,563.5,142.2,563.8,141.4,563.8z" class="st2"/><path d="M596.5,431.8h27c0.9,0,1.7-0.3,2.5-0.8l0,0c3.5-2.4,1.7-7.9-2.5-7.9h-27c-4.3,0-6,5.6-2.3,8l0,0 C594.9,431.6,595.7,431.8,596.5,431.8z" class="st2"/><path d="M596.5,467.6h27c0.9,0,1.7-0.3,2.5-0.8l0,0c3.5-2.4,1.7-7.9-2.5-7.9h-27c-4.3,0-6,5.6-2.3,8l0,0 C594.9,467.3,595.7,467.6,596.5,467.6z" class="st2"/><path d="M596.5,518.1h27c0.9,0,1.7-0.3,2.5-0.8l0,0c3.5-2.4,1.7-7.9-2.5-7.9h-27c-4.3,0-6,5.6-2.3,8l0,0 C594.9,517.9,595.7,518.1,596.5,518.1z" class="st2"/><path d="M596.5,568.7h27c0.9,0,1.7-0.3,2.5-0.8l0,0c3.5-2.4,1.7-7.9-2.5-7.9h-27c-4.3,0-6,5.6-2.3,8l0,0 C594.9,568.5,595.7,568.7,596.5,568.7z" class="st2"/></g><g><g><g><path d="M547,354.9c-0.3,1.3-1.5,2.7-4.1,4c-9.5,4.7-28.8-1.3-28.8-1.3s-14.9-2.5-14.9-9.2c0.4-0.3,0.9-0.5,1.3-0.8 c4-2.1,17.2-7.3,40.7,0.2c1.7,0.5,3.3,1.6,4.5,2.9C546.7,351.9,547.2,353.4,547,354.9z" class="st3"/><path d="M547,354.9c-11.6,4.5-22,4.8-32.6-2.6c-4-3-8.9-4.6-13.9-4.6c4-2.1,17.2-7.3,40.7,0.2 c1.7,0.5,3.3,1.6,4.5,2.9C546.7,351.9,547.2,353.4,547,354.9z" class="st2"/><ellipse cx="532.4" cy="351" class="st4" rx="4.1" ry="1.3"/></g><g><polygon points="481.5 358 481.5 361.1 311.2 361.1 311.2 358.6 311.4 358 315.6 346.6 478 346.6" class="st2"/><polygon points="481.5 358 481.5 361.1 311.2 361.1 311.2 358.6 311.4 358" class="st3"/></g></g><g><path d="M615.4,120.5H366.2c-5.2,0-9.4,4.2-9.4,9.4c0,0,0,0,0,0v167.9c0,5.2,4.2,9.4,9.4,9.4c0,0,0,0,0,0h94.6 l-3.5,22.6c0,0-20.3,10.8-6,11.1s81.3,0,81.3,0s13,0-7.6-11.4l-3.3-22.3h93.7c5.2,0,9.4-4.2,9.4-9.4c0,0,0,0,0,0V129.9 C624.8,124.7,620.6,120.5,615.4,120.5C615.4,120.5,615.4,120.5,615.4,120.5z" class="st5"/><rect width="250" height="139.9" x="365.8" y="130.4" class="st3"/><circle cx="490.8" cy="126" r="1.6" class="st4"/><circle cx="490.8" cy="294.3" r="6" class="st4"/><g id="f3c2397c-d780-4cc6-97d8-1503d8277a2c"><path id="ad41612f-86f7-46b2-a964-3a5da7bcf3cf" d="M441,176.4h22.6c2,0,3.6,1.6,3.6,3.6l0,0c0,2-1.6,3.6-3.6,3.6 H441c-2,0-3.6-1.6-3.6-3.6l0,0C437.4,178,439,176.4,441,176.4z" class="st4"/><path id="b9a0b375-cc2a-4c59-8850-661af54e4f62" d="M563.3,176.4h3.3c2,0,3.6,1.6,3.6,3.6l0,0c0,2-1.6,3.6-3.6,3.6 h-3.3c-2,0-3.6-1.6-3.6-3.6l0,0C559.7,178,561.3,176.4,563.3,176.4z" class="st6"/><path id="e174c2ab-9bc5-41ec-b37c-b06fbf8a9878" d="M584.2,176.4h3.3c2,0,3.6,1.6,3.6,3.6l0,0c0,2-1.6,3.6-3.6,3.6 h-3.3c-2,0-3.6-1.6-3.6-3.6l0,0C580.7,178,582.3,176.4,584.2,176.4z" class="st6"/><path id="ba2479ac-4c7d-43b4-a028-73b1e20e4002" d="M481.2,176.4h63.9c2,0,3.6,1.6,3.6,3.6l0,0c0,2-1.6,3.6-3.6,3.6 h-63.9c-2,0-3.6-1.6-3.6-3.6l0,0C477.6,178,479.2,176.4,481.2,176.4z" class="st7"/><path id="ac60ef86-00f2-480b-8171-28b6fdfc1958" d="M403.5,222.6h22.6c2,0,3.6,1.6,3.6,3.6l0,0c0,2-1.6,3.6-3.6,3.6 h-22.6c-2,0-3.6-1.6-3.6-3.6l0,0C399.9,224.2,401.5,222.6,403.5,222.6z" class="st4"/><path id="b3d8298d-cd65-487a-8b19-4cee946356e7" d="M525.8,222.6h3.3c2,0,3.6,1.6,3.6,3.6l0,0c0,2-1.6,3.6-3.6,3.6 h-3.3c-2,0-3.6-1.6-3.6-3.6l0,0C522.3,224.2,523.9,222.6,525.8,222.6z" class="st6"/><path id="ed27f15f-f0c4-4569-8330-a6688f8e356c" d="M546.8,222.6h3.3c2,0,3.6,1.6,3.6,3.6l0,0c0,2-1.6,3.6-3.6,3.6 h-3.3c-2,0-3.6-1.6-3.6-3.6l0,0C543.2,224.2,544.8,222.6,546.8,222.6z" class="st6"/><path id="f685c005-adaf-4d60-acda-005b037d82a6" d="M443.7,222.6h63.9c2,0,3.6,1.6,3.6,3.6l0,0c0,2-1.6,3.6-3.6,3.6 h-63.9c-2,0-3.6-1.6-3.6-3.6l0,0C440.2,224.2,441.8,222.6,443.7,222.6z" class="st7"/><path id="eca7c7fc-83f8-48ca-a588-6606db47af3f" d="M526.4,192.3H549c2,0,3.6,1.6,3.6,3.6l0,0c0,2-1.6,3.6-3.6,3.6 h-22.6c-2,0-3.6-1.6-3.6-3.6l0,0C522.8,193.9,524.4,192.3,526.4,192.3z" class="st8"/><path id="a71b5b2f-f8b9-481d-a301-5e3357e5fe42" d="M566.6,192.3h22.6c2,0,3.6,1.6,3.6,3.6l0,0c0,2-1.6,3.6-3.6,3.6 h-22.6c-2,0-3.6-1.6-3.6-3.6l0,0C563,193.9,564.6,192.3,566.6,192.3z" class="st8"/><path id="abb3a25a-f854-41fc-8391-e6ad9fbe2417" d="M403.5,192.3h3.3c2,0,3.6,1.6,3.6,3.6l0,0c0,2-1.6,3.6-3.6,3.6 h-3.3c-2,0-3.6-1.6-3.6-3.6l0,0C399.9,193.9,401.5,192.3,403.5,192.3z" class="st6"/><path id="add2b425-b775-4eb5-9c25-8c4c14f957c9" d="M424.5,192.3h3.3c2,0,3.6,1.6,3.6,3.6l0,0c0,2-1.6,3.6-3.6,3.6 h-3.3c-2,0-3.6-1.6-3.6-3.6l0,0C420.9,193.9,422.5,192.3,424.5,192.3z" class="st6"/><path id="b7159612-3b84-4b0b-a885-612eaab04c06" d="M445.4,192.3h63.9c2,0,3.6,1.6,3.6,3.6l0,0c0,2-1.6,3.6-3.6,3.6 h-63.9c-2,0-3.6-1.6-3.6-3.6l0,0C441.8,193.9,443.4,192.3,445.4,192.3z" class="st4"/><path id="edfc7301-4de5-47dc-80e2-1ae2da982d6d" d="M464.7,207.8h22.6c2,0,3.6,1.6,3.6,3.6l0,0c0,2-1.6,3.6-3.6,3.6 h-22.6c-2,0-3.6-1.6-3.6-3.6l0,0C461.1,209.4,462.7,207.8,464.7,207.8z" class="st8"/><path id="e1009f91-6275-4375-80fa-0d778e331fdc" d="M424.5,207.8H447c2,0,3.6,1.6,3.6,3.6l0,0c0,2-1.6,3.6-3.6,3.6 h-22.6c-2,0-3.6-1.6-3.6-3.6l0,0C420.9,209.4,422.5,207.8,424.5,207.8z" class="st8"/><path id="a060fb9f-1f1a-4862-9a69-16dd49199e18" d="M403.5,207.8h3.3c2,0,3.6,1.6,3.6,3.6l0,0c0,2-1.6,3.6-3.6,3.6 h-3.3c-2,0-3.6-1.6-3.6-3.6l0,0C399.9,209.4,401.5,207.8,403.5,207.8z" class="st6"/><path id="b6754d5f-104f-449c-b9a9-cf9ac82bf5fe" d="M585.9,207.8h3.3c2,0,3.6,1.6,3.6,3.6l0,0c0,2-1.6,3.6-3.6,3.6 h-3.3c-2,0-3.6-1.6-3.6-3.6l0,0C582.3,209.4,583.9,207.8,585.9,207.8z" class="st6"/><path id="e6ed1ccd-2cfd-450f-a339-07df3a1ee6bb" d="M504.3,207.8h63.9c2,0,3.6,1.6,3.6,3.6l0,0c0,2-1.6,3.6-3.6,3.6 h-63.9c-2,0-3.6-1.6-3.6-3.6l0,0C500.8,209.4,502.4,207.8,504.3,207.8z" class="st4"/></g></g></g><g><path d="M82.1,74.9c0,0,3.5,28.8-9.2,31.1s11.5,41.4,11.5,41.4l57.6,6.9l-13.8-46c0,0-9.2-3.5-3.5-26.5 S82.1,74.9,82.1,74.9z" class="st9"/><polygon points="47 569.3 51.6 632.6 75.8 632.6 68.9 569.3" class="st9"/><polygon points="224.3 449.6 227.8 502.6 254.2 491 243.9 447.3" class="st9"/><path d="M29.8,327.6c0,0,1.2,66.8,8.1,88.6s5.8,23,4.6,26.5s-2.3,1.2-2.3,6.9s-2.3,96.7,0,104.8s-6.9,21.9,0,23 s39.1,0,40.3-6.9c1.2-6.9-9.2-9.2-4.6-13.8c4.6-4.6,11.5-99,11.5-99l16.1-65.6l29.9-34.5h63.3l19.6,76c0,0-8.1,21.9-2.3,21.9 s40.3,6.9,40.3-18.4s-11.5-100.1-13.8-102.5s1.2-10.4-2.3-13.8s-43.7-27.6-58.7-32.2s-36-10.1-36-10.1L29.8,327.6z" class="st3"/><path d="M254.2,481.8c0,0-17.3-5.8-25.3,11.5s-4.6,21.9-4.6,21.9s26.5,9.2,31.1,4.6c2-2,8.4-2.7,14.9-2.8 c10-0.2,12.6-14.3,3.2-17.6c-0.3-0.1-0.6-0.2-0.9-0.3C263.4,496.8,254.2,481.8,254.2,481.8z" class="st3"/><path d="M63.1,120.4c0,0,56.4,11.5,70.2-6.9s19.6,51.8,19.6,51.8l6.9,73.7l-10.4,40.3c0,0-54.1,43.7-71.4,47.2 s-43.7,5.8-43.7,5.8s8.1-127.8,8.1-130.1S63.1,120.4,63.1,120.4z" class="st4"/><path d="M80.3,98.8c0,0-12.5-7.2-16-0.3s-35.7,24.2-39.1,24.2s6.9,95.5,2.3,107.1S1,325.3,13.6,332.2 s3.5-6.9,16.1,10.4s74.8,17.3,78.3,10.4s-27.6-58.7-21.9-107.1s15-115.1,6.9-124.3S80.3,98.8,80.3,98.8z" class="st3"/><path d="M121.9,106.6l1.6-5.5c0,0,47.9,15.9,50.2,26.2s1.2,82.9-6.9,88.6s-13.7,11.2-10.6,28.5 c2.7,15.2,16.4,29,23.3,30.2s19.6,9.2,16.1,17.3s-44.9-6.9-44.9-6.9s-27.6-20.7-26.5-53S121.9,106.6,121.9,106.6z" class="st3"/><path d="M162.1,242.4l-27.6,51.8c0,0-40.3,41.4-17.3,46s35.7-38,35.7-38l29.9-42.6L162.1,242.4z" class="st9"/><path d="M162.1,122.7l10.7,2.8c0,0,25,63.9,19.2,107.7s-9.2,34.5-9.2,34.5s-9.2-20.7-29.9-16.1L162.1,122.7z" class="st3"/><path d="M48.6,624.3c-2.8,3.8-2.2,9.2-4.7,13.2c-2.1,3.5-6.1,5.3-8.8,8.3c-0.9,1-1.6,2.1-2.3,3.3 c-2.5,4.1-4.5,9.5-2,13.6c2,3.4,6.1,4.7,9.9,5.6c4.8,1.1,9.7,2,14.6,1.2s9.5-3.8,11.3-8.4c0.3-1.2,0.7-2.3,1.2-3.4 c2.6-5.2,10.8-5.2,13.5-10.3c1.9-3.6,0.2-7.9-1.6-11.6l-5.3-11.2c-1.7-3.7-8.8-1.6-12.5-2.5C57.1,620.8,52.1,619.5,48.6,624.3z" class="st3"/><path d="M10.2,265.4l48.3,74.8c0,0,29.9,38,39.1,20.7s-32.2-46-32.2-46l-31.1-57.6L10.2,265.4z" class="st9"/><path d="M34.4,125l-9.2-2.3c0,0-18.4,5.8-23,29.9S1,273.5,6.7,274.6s28.4-16.8,32.1-13s-7.9-15.8-4.4-26.1 S34.4,125,34.4,125z" class="st3"/><circle cx="108" cy="59.4" r="34.5" class="st9"/><path d="M155.5,39.5c-1.7,5.6-4.2,11-4.7,16.9c0,1.5-0.2,2.9-0.7,4.3c-1.3,3.2-4.8,3.8-7.9,3.8 c0.2-1.7,0.4-3.4,0.4-5.1c0-1.8-0.2-3.7-0.4-5.4c-1.3,0.3-2.7,0.3-3.9,0.2c-0.2,1.3-1,2.5-2.2,3.3c-0.4-1.1-0.6-2.2-0.6-3.3 c-0.2-3.4,0.7-7,0.2-10.2c-0.2-1.2-0.6-2.4-1.4-3.5c-2.1-2.9-6.1-3.7-9.7-4.4c-7.6-1.4-16.3-2.6-22.5,1.9 c-1.8,1.3-3.9,3.2-5.9,2.2c-0.8-0.4-1.4-1.2-2.2-1.7c-2.4-1.4-5.1,1-6.7,3.2c0,0,0,0.1-0.1,0.1L79.8,52L77,55.8 c0.4-3.1,0.3-6.2-0.2-9.2c-0.1-0.4-0.6-0.5-0.8-0.1c-0.7,1.8-1.3,3.6-1.7,5.6c-3.2-3.9-7.2-7.7-9.3-11.9c-1-1.7-1.7-3.5-2.1-5.4 c-0.7-5.8,4.7-9.7,9-12.9c5.9-4.4,10.8-9.9,14.4-16.3c0.9-1.6,1.9-3.4,3.4-4.4c1.5-0.9,3.2-1.2,5-1.1c20,0,40.9,2.5,56.8,17.9 c1.4,1.3,2.7,2.8,3.7,4.5C157.9,27.3,157.2,33.9,155.5,39.5z" class="st3"/></g></g></svg>